<?xml version="1.0" encoding="UTF-8"?>
<svg id="Layer_1" data-name="Layer 1" xmlns="http://www.w3.org/2000/svg" width="913" height="165.32" viewBox="0 0 913 165.32">
  <defs>
    <style>
      .cls-1 {
        fill: #1e1e1e;
      }
    </style>
  </defs>
  <path class="cls-1" d="M220.59,43.04h9.87v23.47c-4.49-6.09-11.54-9.87-21.22-9.87-17.76,0-30.39,13.72-30.39,31.55s12.5,31.68,30.39,31.68c9.68,0,16.67-3.78,21.22-10v10h10.64V34.38h-20.52v8.66Zm-10.45,67.26c-11.54,0-20.33-9.04-20.33-22.06s8.78-21.99,20.33-21.99,20.2,9.23,20.2,21.99-9.11,22.06-20.2,22.06Z"/>
  <path class="cls-1" d="M282.85,56.57c-18.02,0-31.29,13.15-31.29,31.68s13.21,31.68,31.29,31.68c15.26,0,26.23-8.14,28.98-20.01h-11.09c-2.76,7.31-10.32,10.96-17.76,10.96-10.77,0-19.11-7.95-20.33-19.81h50.72c.19-2.37,.19-5.32,0-7.95-1.28-15.33-14.04-26.55-30.52-26.55h0Zm-19.81,26.23c1.99-10.45,9.87-17.18,19.88-17.18,8.34,0,17.76,5.96,19.43,17.18h-39.31Z"/>
  <path class="cls-1" d="M350.82,56.57c-18.02,0-31.29,13.15-31.29,31.68s13.21,31.68,31.29,31.68c15.26,0,26.23-8.14,28.98-20.01h-11.09c-2.76,7.31-10.32,10.96-17.76,10.96-10.77,0-19.11-7.95-20.33-19.81h50.72c.19-2.37,.19-5.32,0-7.95-1.28-15.33-14.04-26.55-30.52-26.55h0Zm-19.75,26.23c1.99-10.45,9.87-17.18,19.88-17.18,8.34,0,17.76,5.96,19.43,17.18h-39.31Z"/>
  <path class="cls-1" d="M423.6,56.7c-9.55,0-16.67,3.91-21.22,10v-8.98h-10.64v82.59h10.64v-30.59c4.49,6.22,11.67,10.13,21.22,10.13,17.89,0,30.39-13.72,30.39-31.68,.06-17.89-12.44-31.55-30.39-31.48h0Zm-.83,53.61c-10.96,0-20.07-9.23-20.07-22.06s8.98-21.99,20.07-21.99c11.67,0,20.46,9.04,20.46,21.99-.06,12.89-8.85,22.06-20.46,22.06Z"/>
  <path class="cls-1" d="M511.96,66.12c7.44,0,14.94,4.17,17.44,11.86h11.41c-2.89-12.82-14.17-21.42-29.11-21.42-18.15,0-31.55,13.15-31.55,31.68s13.4,31.68,31.55,31.68c14.94,0,26.23-8.59,29.11-21.42h-11.41c-2.5,7.69-10,11.86-17.44,11.86-11.73,0-20.78-9.36-20.78-22.06s9.04-22.19,20.78-22.19Z"/>
  <path class="cls-1" d="M578.01,57.47c-7.25,0-13.53,3.59-16.48,8.21v-30.59h-10.64v8.78h0V119.86h10.64v-37.7c0-10.07,6.28-15.65,13.85-15.65s13.21,5.84,13.21,15.13v38.22h10.64v-39.24c-.06-14.75-8.59-23.15-21.22-23.15h0Z"/>
  <path class="cls-1" d="M660.92,66.7c-4.49-6.09-11.54-10-21.22-10-17.76,0-30.46,13.72-30.46,31.55s12.5,31.68,30.46,31.68c9.68,0,16.67-3.78,21.22-10v8.72h10.52V57.92h-10.52v8.78h0Zm-20.33,43.6c-11.54,0-20.33-9.04-20.33-22.06s8.78-21.99,20.33-21.99,20.2,9.23,20.2,21.99-9.11,22.06-20.2,22.06Z"/>
  <path class="cls-1" d="M713.31,56.7c-7.25,0-13.53,3.65-16.48,8.34v-6.99h-10.64v61.88h10.64v-38.15c0-10.2,6.28-15.84,13.85-15.84s13.21,5.9,13.21,15.33v38.73h10.64v-39.82c0-14.94-8.59-23.47-21.22-23.47Z"/>
  <path class="cls-1" d="M776.02,56.7c-7.25,0-13.53,3.65-16.48,8.34v-6.99h-10.64v61.88h10.64v-38.15c0-10.2,6.28-15.84,13.85-15.84s13.21,5.9,13.21,15.33v38.73h10.64v-39.82c0-14.94-8.59-23.47-21.22-23.47Z"/>
  <path class="cls-1" d="M838.6,56.57c-18.02,0-31.29,13.15-31.29,31.68s13.21,31.68,31.29,31.68c15.26,0,26.23-8.14,28.98-20.01h-11.09c-2.76,7.31-10.32,10.96-17.76,10.96-10.77,0-19.11-7.95-20.33-19.81h50.72c.19-2.37,.19-5.32,0-7.95-1.28-15.33-14.04-26.55-30.52-26.55Zm-19.75,26.23c1.99-10.45,9.87-17.18,19.88-17.18,8.34,0,17.76,5.96,19.43,17.18h-39.31Z"/>
  <path class="cls-1" d="M898.17,111.01V35.09h-23.28v8.72h12.5V110.95h-14.04v8.72h39.31v-8.72h-14.49v.06Z"/>
  <path class="cls-1" d="M129.41,69.46v-8.72h-35.91l-13.79,13.27h-29.56l-13.79-13.27H.46v8.72H32.84l13.79,13.27h36.61l13.79-13.27s32.38,0,32.38,0Z"/>
  <path class="cls-1" d="M129.41,104.34h-32.38l-13.79-13.27H46.63l-13.79,13.27H.46v8.72H36.37l13.79-13.27h29.56l13.79,13.27h35.91v-8.72h0Z"/>
</svg>